<svg width="44" height="44" viewBox="0 0 44 44" fill="none" xmlns="http://www.w3.org/2000/svg">
<rect width="44" height="44" rx="4.89028" fill="#68459B"/>
<path fill-rule="evenodd" clip-rule="evenodd" d="M13 15.3684C13 14.0604 14.0604 13 15.3684 13L29.1053 13C30.4133 13 31.4737 14.0604 31.4737 15.3684V31L27.6842 28.1579H15.3684C14.0604 28.1579 13 27.0975 13 25.7895V15.3684ZM17.747 20.507C17.626 19.4771 18.5456 17.7368 22.466 17.7368C26.9224 17.7368 26.7887 19.6864 26.7152 20.7591L26.713 20.7911C26.6404 21.8566 25.5877 23.4835 22.466 23.4192C19.0175 23.3482 17.9648 22.6379 17.747 20.507ZM20.4742 19.6244C20.2148 19.5884 19.9754 19.7696 19.9397 20.029L19.813 20.9504C19.7779 21.2049 19.9522 21.441 20.2057 21.4825L20.4378 21.5204C20.7004 21.5634 20.9468 21.3817 20.9834 21.1181L21.1122 20.1912C21.1482 19.9321 20.9673 19.6929 20.7082 19.6569L20.4742 19.6244ZM23.6171 20.029C23.6528 19.7696 23.8921 19.5884 24.1515 19.6244L24.3855 19.6569C24.6446 19.6929 24.8255 19.9321 24.7895 20.1912L24.6608 21.1181C24.6242 21.3817 24.3777 21.5634 24.1151 21.5204L23.8831 21.4825C23.6295 21.441 23.4553 21.2049 23.4903 20.9504L23.6171 20.029Z" fill="#E1DAEB"/>
</svg>
