<svg width="44" height="44" viewBox="0 0 44 44" fill="none" xmlns="http://www.w3.org/2000/svg">
<rect width="44" height="44" rx="4.89028" fill="#68459B"/>
<path d="M28 17H26C25.45 17 25 17.45 25 18V20C25 20.55 25.45 21 26 21V23H23V15H24C24.41 15 24.65 14.53 24.4 14.2L22.4 11.53C22.2 11.26 21.8 11.26 21.6 11.53L19.6 14.2C19.35 14.53 19.59 15 20 15H21V23H18V20.93C18.83 20.49 19.38 19.57 19.14 18.5C18.97 17.73 18.37 17.1 17.62 16.89C16.15 16.48 14.8 17.59 14.8 19C14.8 19.85 15.3 20.56 16 20.93V23C16 24.1 16.9 25 18 25H21V28.05C20.14 28.5 19.61 29.47 19.87 30.54C20.05 31.29 20.66 31.92 21.41 32.12C22.87 32.51 24.21 31.42 24.21 30C24.21 29.15 23.72 28.42 23.01 28.05V25H26.01C27.11 25 28.01 24.1 28.01 23V21C28.56 21 29.01 20.55 29.01 20V18C29 17.45 28.55 17 28 17Z" fill="#E1DAEB"/>
</svg>
