<svg width="44" height="44" viewBox="0 0 44 44" fill="none" xmlns="http://www.w3.org/2000/svg">
<rect width="44" height="44" rx="4.89028" fill="#68459B"/>
<path fill-rule="evenodd" clip-rule="evenodd" d="M16.2763 13C15.2993 13 14.5089 13.81 14.5089 14.8L14.5 29.2C14.5 30.19 15.2905 31 16.2674 31H26.9342C27.9112 31 28.7105 30.19 28.7105 29.2V17.5449C28.7105 17.0679 28.524 16.6089 28.1865 16.2759L25.4777 13.531C25.1491 13.189 24.6961 13 24.2254 13H16.2763ZM17.1155 21.928C16.9945 20.8981 17.914 19.1579 21.8344 19.1579C26.2908 19.1579 26.1571 21.1074 26.0836 22.1802L26.0814 22.2122C26.0088 23.2776 24.9561 24.9046 21.8344 24.8403C18.3859 24.7692 17.3333 24.0589 17.1155 21.928ZM19.8426 21.0454C19.5832 21.0094 19.3438 21.1906 19.3081 21.45L19.1813 22.3715C19.1463 22.626 19.3206 22.862 19.5741 22.9035L19.8062 22.9415C20.0688 22.9844 20.3152 22.8027 20.3518 22.5392L20.4806 21.6123C20.5166 21.3531 20.3357 21.1139 20.0766 21.0779L19.8426 21.0454ZM22.9855 21.45C23.0212 21.1906 23.2606 21.0094 23.5199 21.0454L23.7539 21.0779C24.013 21.1139 24.1939 21.3531 24.1579 21.6123L24.0292 22.5392C23.9926 22.8027 23.7461 22.9844 23.4835 22.9415L23.2515 22.9035C22.9979 22.862 22.8237 22.626 22.8587 22.3715L22.9855 21.45Z" fill="#E1DAEB"/>
</svg>
