<svg width="44" height="44" viewBox="0 0 44 44" fill="none" xmlns="http://www.w3.org/2000/svg">
<rect width="44" height="44" rx="4.89028" fill="#68459B"/>
<path fill-rule="evenodd" clip-rule="evenodd" d="M30.5962 17.804C31.1227 18.1411 31.4644 18.748 31.4644 19.4415L31.4737 29.0736C31.4737 30.1331 30.6424 31 29.6263 31H14.8474C13.8313 31 13 30.1331 13 29.0736L13 19.4415C13 18.748 13.351 18.1411 13.8775 17.804L21.3039 13.2673C21.8766 12.9109 22.5971 12.9109 23.1698 13.2673L30.5962 17.804ZM17.747 23.3491C17.626 22.3192 18.5456 20.5789 22.466 20.5789C26.9224 20.579 26.7887 22.5285 26.7152 23.6012L26.713 23.6332C26.6404 24.6987 25.5877 26.3256 22.466 26.2613C19.0175 26.1903 17.9648 25.48 17.747 23.3491ZM20.4741 22.4665C20.2148 22.4305 19.9754 22.6117 19.9397 22.8711L19.8129 23.7925C19.7779 24.047 19.9522 24.2831 20.2057 24.3246L20.4378 24.3625C20.7004 24.4055 20.9468 24.2238 20.9834 23.9602L21.1122 23.0333C21.1481 22.7742 20.9673 22.535 20.7081 22.499L20.4741 22.4665ZM23.6171 22.8711C23.6528 22.6117 23.8921 22.4305 24.1515 22.4665L24.3855 22.499C24.6446 22.535 24.8255 22.7742 24.7895 23.0333L24.6608 23.9602C24.6242 24.2238 24.3777 24.4055 24.1151 24.3625L23.8831 24.3246C23.6295 24.2831 23.4553 24.047 23.4903 23.7925L23.6171 22.8711Z" fill="#E1DAEB"/>
</svg>
