<svg width="34" height="26" viewBox="0 0 34 26" fill="none" xmlns="http://www.w3.org/2000/svg">
<path d="M2.77222 25.5H8.07389V12.6243L0.5 6.94389V23.2279C0.5 24.4833 1.5168 25.5 2.77222 25.5Z" fill="#4285F4"/>
<path d="M26.2511 25.4999H31.5528C32.8082 25.4999 33.825 24.4831 33.825 23.2277V6.94389L26.2511 12.6243V25.4999Z" fill="#34A853"/>
<path d="M26.2511 2.77824V12.6243L33.825 6.94389V3.91434C33.825 1.10634 30.6194 -0.497407 28.3718 1.18777L26.2511 2.77824Z" fill="#FBBC04"/>
<path fill-rule="evenodd" clip-rule="evenodd" d="M8.07389 12.6243V2.77826L17.1625 9.59479L26.2511 2.77824V12.6243L17.1625 19.4408L8.07389 12.6243Z" fill="#EA4335"/>
<path d="M0.5 3.91435V6.94389L8.07389 12.6243V2.77826L5.9532 1.18777C3.70558 -0.49741 0.5 1.10647 0.5 3.91435Z" fill="#C5221F"/>
</svg>
