<svg width="44" height="44" viewBox="0 0 44 44" fill="none" xmlns="http://www.w3.org/2000/svg">
<g clip-path="url(#clip0_2_24281)">
<path d="M26.0005 5.5H13.2493C12.0507 5.5 11 6.5494 11 7.7506V36.2507C11 37.4506 12.0494 38.5013 13.2506 38.5013H32.751C33.9508 38.5013 35.0016 37.4519 35.0016 36.2507V14.4998L29.7519 10.7496L26.0005 5.5Z" fill="#4285F4"/>
<path d="M16.9994 29.5002H28.9995V28.0007H17.0007L16.9994 29.5002ZM16.9994 32.5006H25.9991V31.0011H16.9994V32.5006ZM16.9994 22V23.4995H28.9995V22H16.9994ZM16.9994 26.4999H28.9995V25.0004H17.0007L16.9994 26.4999Z" fill="#F1F1F1"/>
<path d="M26.0004 5.5V12.2505C26.0004 13.4504 27.0498 14.4998 28.2497 14.4998H35.0002L26.0004 5.5Z" fill="#A1C2FA"/>
</g>
<defs>
<clipPath id="clip0_2_24281">
<rect width="24.0002" height="33" fill="white" transform="translate(11 5.5)"/>
</clipPath>
</defs>
</svg>
