<svg viewBox="0 0 55 55" fill="none" xmlns="http://www.w3.org/2000/svg">
<rect width="55" height="55" rx="6" fill="#68459B"/>
<path d="M27.4238 11.1002C18.4131 11.1002 11.1001 18.4132 11.1001 27.4239C11.1001 36.4346 18.4131 43.7476 27.4238 43.7476C36.4345 43.7476 43.7475 36.4346 43.7475 27.4239C43.7475 18.4132 36.4345 11.1002 27.4238 11.1002ZM33.9533 29.0562H29.0562V33.9534C29.0562 34.8512 28.3216 35.5857 27.4238 35.5857C26.526 35.5857 25.7915 34.8512 25.7915 33.9534V29.0562H20.8943C19.9965 29.0562 19.262 28.3217 19.262 27.4239C19.262 26.5261 19.9965 25.7915 20.8943 25.7915H25.7915V20.8944C25.7915 19.9966 26.526 19.262 27.4238 19.262C28.3216 19.262 29.0562 19.9966 29.0562 20.8944V25.7915H33.9533C34.8511 25.7915 35.5857 26.5261 35.5857 27.4239C35.5857 28.3217 34.8511 29.0562 33.9533 29.0562Z" fill="#E1DAEB"/>
</svg>
