<svg width="32" height="30" viewBox="0 0 32 30" fill="none" xmlns="http://www.w3.org/2000/svg">
<path d="M29.279 1.35101e-08H21.5109C21.2192 -3.18755e-05 20.9304 0.0563893 20.661 0.166039C20.3915 0.275688 20.1467 0.436417 19.9405 0.639037L1.60525 18.6469C1.39894 18.8494 1.2353 19.0898 1.12365 19.3545C1.01201 19.6191 0.954561 19.9027 0.95459 20.1892V27.8186C0.954572 28.1051 1.01201 28.3887 1.12362 28.6534C1.23523 28.9181 1.39883 29.1585 1.60508 29.3611C1.81133 29.5637 2.05618 29.7244 2.32566 29.834C2.59514 29.9436 2.88397 30 3.17565 30H10.9437C11.2354 30 11.5242 29.9436 11.7937 29.834C12.0631 29.7243 12.308 29.5636 12.5141 29.361L30.8497 11.3531C31.2661 10.9441 31.5001 10.3893 31.5 9.81079V2.18142C31.5001 1.89495 31.4426 1.61128 31.331 1.34661C31.2194 1.08194 31.0558 0.841461 30.8496 0.638895C30.6433 0.436329 30.3985 0.275647 30.129 0.166025C29.8595 0.0564024 29.5707 -1.312e-05 29.279 1.35101e-08Z" fill="#28A8EA"/>
</svg>
