<svg width="21" height="18" viewBox="0 0 21 18" fill="none" xmlns="http://www.w3.org/2000/svg">
<path d="M5.29227 -0.00507841L7.17343 3.49475L15.8355 -0.00507841H5.29227Z" fill="#28A8EA"/>
<path d="M5.29227 -0.00507841L7.17343 3.49475L0.436258 8.83199V-0.00507841H5.29227Z" fill="#0078D4"/>
<path d="M-0.0012207 9.13823L7.17343 3.49475L7.56716 14.8692L-0.0012207 9.13823Z" fill="#0364B8"/>
<path d="M-0.0012207 9.13823L7.56716 14.8692L5.37977 18.2378L0.436258 18.4128L-0.0012207 9.13823Z" fill="#14447D"/>
<path d="M5.37977 18.2378L7.56716 14.8692L16.1855 18.4128L5.37977 18.2378Z" fill="#0F335E"/>
<path d="M7.56716 14.8692L16.4042 9.13823L16.1855 18.4128L7.56716 14.8692Z" fill="#0364B8"/>
<path d="M7.56716 14.8692L7.17343 3.49475L16.4042 9.13823L7.56716 14.8692Z" fill="#28A8EA"/>
<path d="M7.17343 3.49475L16.1855 -0.136322L16.4042 9.13823L7.17343 3.49475Z" fill="#50D9FF"/>
<path d="M16.4042 9.13823L16.1855 -0.136322L21.3915 -0.00507841V9.13823L16.4042 9.13823Z" fill="#28A8EA"/>
<path d="M16.4042 9.13823L16.1855 18.719H21.129L21.3915 9.13823L16.4042 9.13823Z" fill="#0078D4"/>
</svg>
