<svg width="44" height="44" viewBox="0 0 44 44" fill="none" xmlns="http://www.w3.org/2000/svg">
<g clip-path="url(#clip0_2_24293)">
<path d="M19.0984 11.2505C20.3654 9.93037 22.1293 9.11158 24.0801 9.11158C26.6735 9.11158 28.936 10.5576 30.1409 12.7044C31.188 12.2365 32.347 11.9763 33.5664 11.9763C38.2437 11.9763 42.0357 15.8014 42.0357 20.5195C42.0357 25.2383 38.2437 29.0633 33.5664 29.0633C33.0061 29.0637 32.4473 29.008 31.8981 28.8971C30.8371 30.7897 28.8151 32.0685 26.4944 32.0685C25.5229 32.0685 24.6039 31.8441 23.7858 31.4451C22.7102 33.9752 20.2042 35.7491 17.2835 35.7491C14.2419 35.7491 11.6497 33.8246 10.6547 31.1255C10.2199 31.2179 9.7694 31.266 9.30714 31.266C5.68581 31.2661 2.75 28.3 2.75 24.6406C2.75 22.1884 4.06904 20.0472 6.02884 18.9017C5.62537 17.9733 5.40094 16.9486 5.40094 15.8713C5.40094 11.6629 8.81746 8.25146 13.0315 8.25146C15.5055 8.25146 17.7043 9.42779 19.0984 11.2505Z" fill="#00A1E0"/>
<path d="M8.44015 22.5108C8.41553 22.5751 8.44911 22.5886 8.45694 22.5997C8.53079 22.6535 8.60583 22.6921 8.68137 22.7352C9.08205 22.9478 9.4604 23.0099 9.85605 23.0099C10.6619 23.0099 11.1622 22.5813 11.1622 21.8912V21.8778C11.1622 21.2398 10.5976 21.0081 10.0676 20.8408L9.99876 20.8184C9.59918 20.6886 9.25445 20.5767 9.25445 20.3137V20.2997C9.25445 20.0747 9.45591 19.9091 9.76819 19.9091C10.1152 19.9091 10.5271 20.0244 10.7923 20.171C10.7923 20.171 10.8701 20.2213 10.8986 20.1458C10.9143 20.1055 11.0486 19.744 11.0626 19.7048C11.0777 19.6622 11.0509 19.6309 11.0234 19.6141C10.7207 19.43 10.3021 19.3041 9.86895 19.3041L9.78837 19.3046C9.05079 19.3046 8.53594 19.7501 8.53594 20.3886V20.4021C8.53594 21.0753 9.10396 21.2935 9.63618 21.4458L9.72179 21.4721C10.1096 21.5913 10.4437 21.6937 10.4437 21.9668V21.9802C10.4437 22.2298 10.2266 22.4156 9.87626 22.4156C9.74027 22.4156 9.30656 22.4128 8.83816 22.1167C8.78161 22.0837 8.74861 22.0597 8.70496 22.0334C8.68204 22.0188 8.62439 21.9936 8.59922 22.0697L8.44015 22.5108ZM20.2376 22.5108C20.213 22.5751 20.2465 22.5886 20.2544 22.5997C20.3282 22.6535 20.4033 22.6921 20.4788 22.7352C20.8794 22.9478 21.2578 23.0099 21.6534 23.0099C22.4593 23.0099 22.9596 22.5813 22.9596 21.8912V21.8778C22.9596 21.2398 22.395 21.0081 21.865 20.8408L21.7962 20.8184C21.3966 20.6886 21.0518 20.5767 21.0518 20.3137V20.2997C21.0518 20.0747 21.2533 19.9091 21.5655 19.9091C21.9125 19.9091 22.3244 20.0244 22.5897 20.171C22.5897 20.171 22.6675 20.2213 22.696 20.1458C22.7116 20.1055 22.846 19.744 22.86 19.7048C22.8751 19.6622 22.8482 19.6309 22.8208 19.6141C22.518 19.43 22.0994 19.3041 21.6663 19.3041L21.5857 19.3046C20.8481 19.3046 20.3333 19.7501 20.3333 20.3886V20.4021C20.3333 21.0753 20.9013 21.2935 21.4335 21.4458L21.5191 21.4721C21.9069 21.5913 22.2416 21.6937 22.2416 21.9668V21.9802C22.2416 22.2298 22.0239 22.4156 21.6736 22.4156C21.5376 22.4156 21.1039 22.4128 20.6355 22.1167C20.579 22.0837 20.5454 22.0608 20.5029 22.0334C20.4883 22.0238 20.42 21.9975 20.3965 22.0697L20.2376 22.5108ZM28.2914 21.1592C28.2914 21.5492 28.2186 21.8564 28.0754 22.0736C27.9338 22.2885 27.7194 22.3931 27.4207 22.3931C27.1213 22.3931 26.9081 22.289 26.7687 22.0736C26.6276 21.857 26.5561 21.5492 26.5561 21.1592C26.5561 20.7697 26.6276 20.463 26.7687 20.2481C26.9081 20.0354 27.1213 19.9319 27.4207 19.9319C27.7195 19.9319 27.9338 20.0354 28.076 20.2481C28.2187 20.4629 28.2914 20.7696 28.2914 21.1592ZM28.9641 20.4361C28.898 20.2128 28.7951 20.0158 28.658 19.8519C28.5209 19.6873 28.3474 19.5553 28.1414 19.459C27.936 19.3633 27.6932 19.3147 27.4207 19.3147C27.1475 19.3147 26.9047 19.3633 26.6993 19.459C26.4933 19.5553 26.3199 19.6874 26.1822 19.8519C26.0457 20.0164 25.9427 20.2134 25.8761 20.4361C25.8106 20.6583 25.7776 20.9011 25.7776 21.1592C25.7776 21.4172 25.8106 21.6606 25.8761 21.8822C25.9427 22.1049 26.0451 22.3019 26.1828 22.4664C26.3199 22.631 26.4939 22.7625 26.6993 22.8559C26.9052 22.9494 27.1475 22.9969 27.4207 22.9969C27.6932 22.9969 27.9355 22.9494 28.1414 22.8559C28.3468 22.7625 28.5209 22.6309 28.658 22.4664C28.7951 22.3025 28.8981 22.1055 28.9641 21.8822C29.0302 21.66 29.0632 21.4166 29.0632 21.1592C29.0632 20.9017 29.0301 20.6583 28.9641 20.4361ZM34.488 22.289C34.4656 22.2235 34.4023 22.2481 34.4023 22.2481C34.3044 22.2856 34.2003 22.3203 34.0895 22.3376C33.977 22.355 33.8533 22.364 33.7207 22.364C33.395 22.364 33.1365 22.2671 32.9513 22.0757C32.7654 21.8843 32.6613 21.5749 32.6624 21.1563C32.6636 20.7752 32.7553 20.4886 32.9205 20.2704C33.0844 20.0533 33.334 19.9419 33.667 19.9419C33.9446 19.9419 34.1561 19.9738 34.3777 20.0437C34.3777 20.0437 34.4309 20.0667 34.456 19.9973C34.5148 19.8339 34.5584 19.7169 34.6211 19.5373C34.639 19.4863 34.5954 19.4645 34.5797 19.4583C34.4924 19.4242 34.2865 19.3688 34.1309 19.3453C33.9854 19.323 33.8153 19.3112 33.6261 19.3112C33.3434 19.3112 33.0916 19.3593 32.8762 19.4556C32.6613 19.5513 32.4789 19.6833 32.3345 19.8479C32.1901 20.0124 32.0804 20.2094 32.0071 20.4321C31.9344 20.6543 31.8975 20.8983 31.8975 21.1563C31.8975 21.7142 32.048 22.1652 32.3452 22.4955C32.6429 22.8268 33.09 22.9952 33.6732 22.9952C34.0179 22.9952 34.3716 22.9253 34.6257 22.8251C34.6257 22.8251 34.6744 22.8016 34.6531 22.7451L34.488 22.289ZM35.6649 20.7855C35.6968 20.5689 35.7567 20.3887 35.849 20.2483C35.9884 20.0351 36.201 19.9181 36.4999 19.9181C36.7988 19.9181 36.9963 20.0356 37.1379 20.2483C37.2319 20.3887 37.2728 20.5768 37.289 20.7855H35.6649ZM37.9297 20.3092C37.8727 20.0938 37.7311 19.8761 37.6382 19.7765C37.4915 19.6186 37.3483 19.5084 37.2061 19.4468C37.0203 19.3674 36.7976 19.3148 36.5536 19.3148C36.2693 19.3148 36.0113 19.3624 35.802 19.4608C35.5922 19.5593 35.4159 19.6937 35.2777 19.861C35.1394 20.0277 35.0354 20.2264 34.9693 20.4519C34.9027 20.6764 34.8691 20.9209 34.8691 21.1789C34.8691 21.4414 34.9039 21.6859 34.9727 21.9058C35.0421 22.1275 35.1529 22.3227 35.3028 22.4844C35.4522 22.6473 35.6448 22.7749 35.8753 22.8639C36.1043 22.9523 36.3824 22.9982 36.7019 22.9976C37.3595 22.9954 37.7059 22.8488 37.8486 22.7698C37.8738 22.7559 37.8979 22.7313 37.8676 22.6607L37.7187 22.2438C37.6964 22.1817 37.6331 22.2046 37.6331 22.2046C37.4702 22.2651 37.2386 22.3736 36.6985 22.3725C36.3454 22.372 36.0835 22.2679 35.9195 22.105C35.7511 21.9383 35.6688 21.6931 35.6543 21.3473L37.9314 21.3495C37.9314 21.3495 37.9912 21.3484 37.9974 21.2902C37.9997 21.2656 38.0758 20.8224 37.9297 20.3092ZM17.4285 20.7855C17.461 20.5689 17.5203 20.3887 17.6126 20.2483C17.752 20.0351 17.9646 19.9181 18.2635 19.9181C18.5623 19.9181 18.7599 20.0356 18.902 20.2483C18.9954 20.3887 19.0363 20.5768 19.0525 20.7855H17.4285ZM19.6927 20.3092C19.6357 20.0938 19.4947 19.8761 19.4018 19.7765C19.2551 19.6186 19.1119 19.5084 18.9697 19.4468C18.7839 19.3674 18.5612 19.3148 18.3172 19.3148C18.0335 19.3148 17.7749 19.3624 17.5656 19.4608C17.3558 19.5593 17.1795 19.6937 17.0413 19.861C16.9031 20.0277 16.799 20.2264 16.7329 20.4519C16.6669 20.6764 16.6328 20.9209 16.6328 21.1789C16.6328 21.4414 16.6675 21.6859 16.7363 21.9058C16.8057 22.1275 16.9165 22.3227 17.0665 22.4844C17.2159 22.6473 17.4084 22.7749 17.639 22.8639C17.8679 22.9523 18.146 22.9982 18.4656 22.9976C19.1231 22.9954 19.4695 22.8488 19.6122 22.7698C19.6374 22.7559 19.6615 22.7313 19.6313 22.6607L19.483 22.2438C19.46 22.1817 19.3968 22.2046 19.3968 22.2046C19.234 22.2651 19.0028 22.3736 18.4617 22.3725C18.1091 22.372 17.8472 22.2679 17.6832 22.105C17.5148 21.9383 17.4325 21.6931 17.4179 21.3473L19.6951 21.3495C19.6951 21.3495 19.7549 21.3484 19.7611 21.2902C19.7632 21.2656 19.8393 20.8224 19.6927 20.3092ZM12.5066 22.2765C12.4176 22.2054 12.4053 22.1875 12.3751 22.1416C12.3303 22.0717 12.3073 21.972 12.3073 21.8456C12.3073 21.6452 12.3734 21.5014 12.5105 21.4046C12.5088 21.4052 12.7064 21.2339 13.1708 21.24C13.4971 21.2445 13.7886 21.2927 13.7886 21.2927V22.328H13.7892C13.7892 22.328 13.4999 22.3901 13.1742 22.4097C12.7108 22.4377 12.5049 22.2759 12.5066 22.2765ZM13.4126 20.6765C13.3202 20.6698 13.2004 20.6659 13.0572 20.6659C12.8619 20.6659 12.6733 20.6905 12.4964 20.7381C12.3185 20.7856 12.1584 20.8601 12.0208 20.9585C11.8833 21.0566 11.7703 21.1851 11.6906 21.334C11.61 21.484 11.5692 21.6609 11.5692 21.859C11.5692 22.0604 11.6038 22.2356 11.6733 22.3789C11.7427 22.5227 11.8428 22.6425 11.9704 22.7348C12.0969 22.8272 12.253 22.8948 12.4343 22.9357C12.6129 22.9766 12.8154 22.9972 13.037 22.9972C13.2704 22.9972 13.5032 22.9783 13.7287 22.9396C13.952 22.9015 14.2262 22.8461 14.3023 22.8288C14.3557 22.816 14.4089 22.8023 14.4618 22.788C14.5184 22.774 14.5139 22.7135 14.5139 22.7135L14.5128 20.6312C14.5128 20.1745 14.3908 19.8359 14.1507 19.6261C13.9117 19.4168 13.5597 19.311 13.1048 19.311C12.9341 19.311 12.6593 19.3345 12.4948 19.3675C12.4948 19.3675 11.9973 19.4638 11.7924 19.6238C11.7924 19.6238 11.7477 19.6518 11.7723 19.7145L11.9335 20.1477C11.9536 20.2036 12.0079 20.1846 12.0079 20.1846C12.0079 20.1846 12.0253 20.1779 12.0454 20.1661C12.4836 19.9277 13.0376 19.935 13.0376 19.935C13.2839 19.935 13.473 19.9842 13.6006 20.0822C13.7248 20.1773 13.7881 20.3211 13.7881 20.6244V20.7207C13.5922 20.6927 13.4126 20.6765 13.4126 20.6765ZM31.7785 19.5032C31.7958 19.4517 31.7595 19.4271 31.7443 19.4215C31.7057 19.4064 31.5121 19.3655 31.3627 19.356C31.0767 19.3387 30.9178 19.3868 30.7756 19.4506C30.6346 19.5144 30.4779 19.6173 30.3906 19.7343V19.4573C30.3906 19.4187 30.3632 19.3879 30.3251 19.3879H29.7414C29.7034 19.3879 29.676 19.4187 29.676 19.4573V22.8537C29.676 22.8917 29.7073 22.9231 29.7454 22.9231H30.3436C30.3619 22.923 30.3795 22.9156 30.3924 22.9026C30.4053 22.8896 30.4125 22.872 30.4124 22.8537V21.1569C30.4124 20.9291 30.4376 20.702 30.488 20.5593C30.5372 20.4182 30.6044 20.3052 30.6872 20.224C30.7706 20.1434 30.8652 20.0869 30.9687 20.055C31.0745 20.0225 31.1914 20.0119 31.2743 20.0119C31.3935 20.0119 31.5244 20.0427 31.5244 20.0427C31.568 20.0477 31.5927 20.0209 31.6072 19.9811C31.6464 19.877 31.7572 19.5653 31.7785 19.5032Z" fill="white"/>
<path d="M26.1631 17.9292C26.0904 17.9068 26.0243 17.8916 25.9381 17.8754C25.8508 17.8598 25.7467 17.8519 25.6287 17.8519C25.2168 17.8519 24.8922 17.9683 24.6644 18.1978C24.4378 18.4261 24.2839 18.7736 24.2066 19.2309L24.1786 19.3847H23.6616C23.6616 19.3847 23.5989 19.3825 23.5854 19.4508L23.501 19.9248C23.4948 19.9696 23.5144 19.9981 23.5748 19.9981H24.078L23.5676 22.8477C23.5278 23.0772 23.4819 23.2658 23.431 23.409C23.3812 23.55 23.3325 23.6558 23.2721 23.733C23.2139 23.8069 23.159 23.8617 23.0638 23.8936C22.9855 23.9199 22.8949 23.9322 22.7958 23.9322C22.7409 23.9322 22.6677 23.9232 22.6134 23.9121C22.5597 23.9014 22.5311 23.8897 22.4902 23.8723C22.4902 23.8723 22.4315 23.85 22.408 23.9087C22.3895 23.9574 22.2552 24.3262 22.239 24.3715C22.2233 24.4169 22.2457 24.4521 22.2742 24.4627C22.3414 24.4863 22.3911 24.5019 22.4824 24.5237C22.6089 24.5534 22.7157 24.5551 22.8159 24.5551C23.0252 24.5551 23.2166 24.5254 23.375 24.4684C23.5339 24.4107 23.6727 24.3105 23.7958 24.1751C23.9284 24.0285 24.0118 23.8751 24.0913 23.6653C24.1702 23.4582 24.238 23.2008 24.2916 22.9009L24.8048 19.9981H25.5547C25.5547 19.9981 25.6179 20.0003 25.6309 19.9315L25.7159 19.4581C25.7215 19.4128 25.7025 19.3848 25.6414 19.3848H24.9134C24.9173 19.3686 24.9503 19.1122 25.0337 18.8711C25.0695 18.7687 25.1367 18.6853 25.1932 18.6282C25.2492 18.5722 25.3135 18.5325 25.3841 18.5095C25.4563 18.486 25.5386 18.4748 25.6287 18.4748C25.6969 18.4748 25.7646 18.4827 25.8155 18.4933C25.886 18.5084 25.9134 18.5162 25.932 18.5219C26.0064 18.5442 26.0164 18.5224 26.031 18.4866L26.2051 18.0087C26.223 17.9571 26.1788 17.9353 26.1631 17.9292ZM15.9905 22.8539C15.9905 22.8919 15.9631 22.9227 15.925 22.9227H15.3212C15.2831 22.9227 15.2563 22.8919 15.2563 22.8539V17.9941C15.2563 17.9561 15.2831 17.9253 15.3212 17.9253H15.925C15.9631 17.9253 15.9905 17.9561 15.9905 17.9941V22.8539Z" fill="white"/>
</g>
<defs>
<clipPath id="clip0_2_24293">
<rect width="39.2857" height="27.5" fill="white" transform="translate(2.75 8.25)"/>
</clipPath>
</defs>
</svg>
