<svg width="70" height="74" viewBox="0 0 44 44" fill="none" xmlns="http://www.w3.org/2000/svg">
<g clip-path="url(#clip0_2_24284)">
<path d="M38.4983 30.1582C38.4983 30.3389 38.4928 30.7308 38.482 31.0335C38.4554 31.7741 38.3967 32.7298 38.3079 33.1653C38.1744 33.8197 37.973 34.4373 37.7103 34.9514C37.3996 35.5596 37.0032 36.1043 36.5322 36.5745C36.0622 37.0437 35.5179 37.4386 34.9107 37.7481C34.3939 38.0114 33.7724 38.213 33.1142 38.3458C32.6831 38.4329 31.7345 38.4905 30.9986 38.5166C30.6956 38.5275 30.3037 38.5329 30.1236 38.5329L13.874 38.5303C13.6933 38.5303 13.3015 38.5247 12.9988 38.5139C12.2582 38.4873 11.3024 38.4286 10.867 38.3399C10.2126 38.2064 9.59487 38.005 9.08079 37.7423C8.47261 37.4315 7.92788 37.0351 7.45772 36.5641C6.9885 36.0941 6.59365 35.5499 6.28418 34.9427C6.02076 34.4259 5.81921 33.8043 5.68634 33.1462C5.59933 32.7151 5.54174 31.7666 5.51554 31.0306C5.50477 30.7276 5.49933 30.3357 5.49933 30.1557L5.50191 13.9062C5.50191 13.7255 5.50742 13.3336 5.51828 13.0309C5.54487 12.2903 5.60355 11.3346 5.69233 10.8991C5.82579 10.2447 6.0272 9.62704 6.28988 9.11293C6.60065 8.50478 6.99707 7.96002 7.46806 7.48987C7.93806 7.02068 8.48231 6.62581 9.08956 6.31631C9.60638 6.05295 10.2279 5.85141 10.886 5.71854C11.3171 5.63149 12.2657 5.5739 13.0017 5.54774C13.3047 5.53694 13.6966 5.53149 13.8766 5.53149L30.1262 5.5341C30.3069 5.5341 30.6988 5.53962 31.0015 5.55048C31.7421 5.57706 32.6978 5.63575 33.1333 5.72453C33.7877 5.85798 34.4054 6.0594 34.9195 6.32208C35.5277 6.63284 36.0724 7.02926 36.5425 7.50025C37.0117 7.97024 37.4066 8.51445 37.7161 9.12173C37.9795 9.63854 38.181 10.2601 38.3139 10.9182C38.4009 11.3493 38.4585 12.2978 38.4847 13.0338C38.4955 13.3368 38.501 13.7287 38.501 13.9088L38.4983 30.1582Z" fill="url(#paint0_linear_2_24284)"/>
<path d="M30.7432 13.339C28.5089 11.1028 25.5376 9.87076 22.3719 9.86951C15.8491 9.86951 10.5404 15.1762 10.5378 21.699C10.5369 23.784 11.0818 25.8193 12.1174 27.6133L10.4385 33.7437L16.712 32.0986C18.4405 33.041 20.3865 33.5377 22.3672 33.5386H22.372C28.8941 33.5386 34.2034 28.2312 34.206 21.7084C34.2073 18.5474 32.9775 15.5751 30.7432 13.339ZM22.372 31.5405H22.368C20.603 31.5399 18.872 31.0659 17.3618 30.17L17.0026 29.9569L13.2798 30.9331L14.2735 27.3047L14.0396 26.9327C13.055 25.3671 12.535 23.5576 12.5358 21.6997C12.5379 16.2783 16.9503 11.8676 22.3758 11.8676C25.003 11.8686 27.4726 12.8927 29.3297 14.7513C31.1868 16.6098 32.2089 19.0803 32.2079 21.7076C32.2058 27.1295 27.7934 31.5405 22.372 31.5405ZM27.7673 24.1763C27.4715 24.0283 26.0178 23.3132 25.7468 23.2146C25.4757 23.1159 25.2786 23.0666 25.0814 23.3625C24.8844 23.6584 24.3177 24.3243 24.1451 24.5215C23.9727 24.7188 23.8002 24.7435 23.5045 24.5955C23.2088 24.4476 22.256 24.1354 21.1266 23.1284C20.2476 22.3447 19.6542 21.3766 19.4817 21.0806C19.3092 20.7847 19.4633 20.6247 19.6114 20.4773C19.7444 20.3449 19.907 20.1321 20.0549 19.9595C20.2027 19.7869 20.252 19.6635 20.3506 19.4663C20.4492 19.269 20.3999 19.0964 20.3259 18.9484C20.252 18.8005 19.6606 17.3455 19.4142 16.7536C19.1742 16.1772 18.9304 16.2552 18.7489 16.2462C18.5766 16.2376 18.3793 16.2358 18.1822 16.2358C17.9851 16.2358 17.6647 16.3098 17.3937 16.6057C17.1227 16.9016 16.3588 17.6168 16.3588 19.0717C16.3588 20.5266 17.4183 21.9323 17.5662 22.1295C17.714 22.3268 19.6512 25.3126 22.6174 26.593C23.3229 26.8975 23.8737 27.0794 24.3032 27.2156C25.0115 27.4406 25.6561 27.4088 26.1656 27.3328C26.7337 27.2479 27.915 26.6177 28.1615 25.9272C28.4079 25.2367 28.4079 24.6449 28.334 24.5216C28.26 24.3983 28.063 24.3243 27.7673 24.1763Z" fill="white"/>
</g>
<defs>
<linearGradient id="paint0_linear_2_24284" x1="22.0001" y1="5.53149" x2="22.0001" y2="38.5329" gradientUnits="userSpaceOnUse">
<stop stop-color="#61FD7D"/>
<stop offset="1" stop-color="#2BB826"/>
</linearGradient>
<clipPath id="clip0_2_24284">
<rect width="33" height="33" fill="white" transform="translate(5.5 5.5)"/>
</clipPath>
</defs>
</svg>
